<?xml version="1.0" encoding="UTF-8" standalone="no"?>
<!DOCTYPE svg PUBLIC "-//W3C//DTD SVG 1.1//EN"
 "http://www.w3.org/Graphics/SVG/1.1/DTD/svg11.dtd">
<!-- Generated by graphviz version 2.43.0 (0)
 -->
<!-- Title: %3 Pages: 1 -->
<svg width="969pt" height="152pt"
 viewBox="0.00 0.00 969.36 152.00" xmlns="http://www.w3.org/2000/svg" xmlns:xlink="http://www.w3.org/1999/xlink">
<g id="graph0" class="graph" transform="scale(1 1) rotate(0) translate(4 148)">
<title>%3</title>
<polygon fill="white" stroke="transparent" points="-4,4 -4,-148 965.36,-148 965.36,4 -4,4"/>
<!-- dog.cc -->
<g id="node1" class="node">
<title>dog.cc</title>
<ellipse fill="none" stroke="black" cx="40.3" cy="-72" rx="40.09" ry="18"/>
<text text-anchor="middle" x="40.3" y="-68.3" font-family="Times,serif" font-size="14.00">dog.cc</text>
</g>
<!-- dog.o -->
<g id="node2" class="node">
<title>dog.o</title>
<ellipse fill="lightgray" stroke="black" cx="227.34" cy="-72" rx="36.29" ry="18"/>
<text text-anchor="middle" x="227.34" y="-68.3" font-family="Times,serif" font-size="14.00">dog.o</text>
</g>
<!-- dog.cc&#45;&gt;dog.o -->
<g id="edge1" class="edge">
<title>dog.cc&#45;&gt;dog.o</title>
<path fill="none" stroke="black" d="M80.99,-72C110.16,-72 149.85,-72 180.39,-72"/>
<polygon fill="black" stroke="black" points="180.77,-75.5 190.77,-72 180.77,-68.5 180.77,-75.5"/>
<text text-anchor="middle" x="123.09" y="-75.8" font-family="Times,serif" font-size="14.00">168ms</text>
</g>
<!-- libanimal.a -->
<g id="node5" class="node">
<title>libanimal.a</title>
<ellipse fill="gray" stroke="black" cx="444.83" cy="-72" rx="61.99" ry="18"/>
<text text-anchor="middle" x="444.83" y="-68.3" font-family="Times,serif" font-size="14.00">libanimal.a</text>
</g>
<!-- dog.o&#45;&gt;libanimal.a -->
<g id="edge4" class="edge">
<title>dog.o&#45;&gt;libanimal.a</title>
<path fill="none" stroke="black" d="M263.92,-72C293.42,-72 336.28,-72 372.77,-72"/>
<polygon fill="black" stroke="black" points="372.88,-75.5 382.88,-72 372.88,-68.5 372.88,-75.5"/>
</g>
<!-- cat.cc -->
<g id="node3" class="node">
<title>cat.cc</title>
<ellipse fill="none" stroke="black" cx="40.3" cy="-126" rx="37.89" ry="18"/>
<text text-anchor="middle" x="40.3" y="-122.3" font-family="Times,serif" font-size="14.00">cat.cc</text>
</g>
<!-- cat.o -->
<g id="node4" class="node">
<title>cat.o</title>
<ellipse fill="lightgray" stroke="black" cx="227.34" cy="-126" rx="33.29" ry="18"/>
<text text-anchor="middle" x="227.34" y="-122.3" font-family="Times,serif" font-size="14.00">cat.o</text>
</g>
<!-- cat.cc&#45;&gt;cat.o -->
<g id="edge2" class="edge">
<title>cat.cc&#45;&gt;cat.o</title>
<path fill="none" stroke="black" d="M78.3,-126C108.71,-126 151.84,-126 183.7,-126"/>
<polygon fill="black" stroke="black" points="184.04,-129.5 194.04,-126 184.04,-122.5 184.04,-129.5"/>
<text text-anchor="middle" x="123.09" y="-129.8" font-family="Times,serif" font-size="14.00">147ms</text>
</g>
<!-- cat.o&#45;&gt;libanimal.a -->
<g id="edge3" class="edge">
<title>cat.o&#45;&gt;libanimal.a</title>
<path fill="none" stroke="black" d="M257.85,-118.6C291.14,-110.26 346.06,-96.5 387.61,-86.09"/>
<polygon fill="black" stroke="black" points="388.48,-89.48 397.33,-83.65 386.77,-82.69 388.48,-89.48"/>
</g>
<!-- animal.cpython&#45;39&#45;x86_64&#45;linux&#45;gnu.so -->
<g id="node8" class="node">
<title>animal.cpython&#45;39&#45;x86_64&#45;linux&#45;gnu.so</title>
<polygon fill="none" stroke="black" points="838.57,-62 543.57,-62 543.57,-26 838.57,-26 838.57,-62"/>
<text text-anchor="middle" x="691.07" y="-40.3" font-family="Times,serif" font-size="14.00">animal.cpython&#45;39&#45;x86_64&#45;linux&#45;gnu.so</text>
</g>
<!-- libanimal.a&#45;&gt;animal.cpython&#45;39&#45;x86_64&#45;linux&#45;gnu.so -->
<g id="edge6" class="edge">
<title>libanimal.a&#45;&gt;animal.cpython&#45;39&#45;x86_64&#45;linux&#45;gnu.so</title>
<path fill="none" stroke="black" d="M502.47,-65.51C512.08,-64.41 522.45,-63.22 533.21,-61.98"/>
<polygon fill="black" stroke="black" points="533.66,-65.45 543.19,-60.84 532.86,-58.5 533.66,-65.45"/>
</g>
<!-- wrapper.cc -->
<g id="node6" class="node">
<title>wrapper.cc</title>
<ellipse fill="none" stroke="black" cx="227.34" cy="-18" rx="61.99" ry="18"/>
<text text-anchor="middle" x="227.34" y="-14.3" font-family="Times,serif" font-size="14.00">wrapper.cc</text>
</g>
<!-- wrapper.o -->
<g id="node7" class="node">
<title>wrapper.o</title>
<ellipse fill="lightgray" stroke="black" cx="444.83" cy="-18" rx="57.39" ry="18"/>
<text text-anchor="middle" x="444.83" y="-14.3" font-family="Times,serif" font-size="14.00">wrapper.o</text>
</g>
<!-- wrapper.cc&#45;&gt;wrapper.o -->
<g id="edge5" class="edge">
<title>wrapper.cc&#45;&gt;wrapper.o</title>
<path fill="none" stroke="black" d="M289.22,-18C316.71,-18 349.26,-18 377.38,-18"/>
<polygon fill="black" stroke="black" points="377.52,-21.5 387.52,-18 377.52,-14.5 377.52,-21.5"/>
<text text-anchor="middle" x="336.08" y="-21.8" font-family="Times,serif" font-size="14.00">2811ms</text>
</g>
<!-- wrapper.o&#45;&gt;animal.cpython&#45;39&#45;x86_64&#45;linux&#45;gnu.so -->
<g id="edge7" class="edge">
<title>wrapper.o&#45;&gt;animal.cpython&#45;39&#45;x86_64&#45;linux&#45;gnu.so</title>
<path fill="none" stroke="black" d="M499.13,-23.67C509.65,-24.79 521.19,-26.02 533.22,-27.3"/>
<polygon fill="black" stroke="black" points="533.12,-30.81 543.43,-28.39 533.86,-23.85 533.12,-30.81"/>
</g>
<!-- python -->
<g id="node9" class="node">
<title>python</title>
<ellipse fill="lightseagreen" stroke="black" cx="918.47" cy="-44" rx="42.79" ry="18"/>
<text text-anchor="middle" x="918.47" y="-40.3" font-family="Times,serif" font-size="14.00">python</text>
</g>
<!-- animal.cpython&#45;39&#45;x86_64&#45;linux&#45;gnu.so&#45;&gt;python -->
<g id="edge8" class="edge">
<title>animal.cpython&#45;39&#45;x86_64&#45;linux&#45;gnu.so&#45;&gt;python</title>
<path fill="none" stroke="black" d="M838.63,-44C847.86,-44 856.75,-44 865.02,-44"/>
<polygon fill="black" stroke="black" points="865.15,-47.5 875.15,-44 865.15,-40.5 865.15,-47.5"/>
</g>
</g>
</svg>
